HIERARCHY
ROOT Hips
{
	OFFSET -60.712399 36.247601 12.323000 
	CHANNELS 6 Xposition Yposition Zposition Zrotation Xrotation Yrotation
	JOINT LeftHip
	{
		OFFSET 3.430000 0.000000 0.000000 
		CHANNELS 6 Xposition Yposition Zposition Zrotation Xrotation Yrotation
		JOINT LeftKnee
		{
			OFFSET 0.000000 -18.469999 0.000000 
			CHANNELS 6 Xposition Yposition Zposition Zrotation Xrotation Yrotation
			JOINT LeftAnkle
			{
				OFFSET 0.000000 -17.950001 0.000000 
				CHANNELS 6 Xposition Yposition Zposition Zrotation Xrotation Yrotation
				End Site
				{
					OFFSET 0.000000 -3.120000 0.000000 
				}
			}
		}
	}
	JOINT RightHip
	{
		OFFSET -3.430000 0.000000 0.000000 
		CHANNELS 6 Xposition Yposition Zposition Zrotation Xrotation Yrotation
		JOINT RightKnee
		{
			OFFSET 0.000000 -18.469999 0.000000 
			CHANNELS 6 Xposition Yposition Zposition Zrotation Xrotation Yrotation
			JOINT RightAnkle
			{
				OFFSET 0.000000 -17.950001 0.000000 
				CHANNELS 6 Xposition Yposition Zposition Zrotation Xrotation Yrotation
				End Site
				{
					OFFSET 0.000000 -3.120000 0.000000 
				}
			}
		}
	}
	JOINT Chest
	{
		OFFSET 0.000000 4.570000 0.000000 
		CHANNELS 6 Xposition Yposition Zposition Zrotation Xrotation Yrotation
		JOINT CS_BVH
		{
			OFFSET 0.000000 6.570000 0.000000 
			CHANNELS 6 Xposition Yposition Zposition Zrotation Xrotation Yrotation
			JOINT LeftCollar
			{
				OFFSET 1.060000 4.190000 1.760000 
				CHANNELS 6 Xposition Yposition Zposition Zrotation Xrotation Yrotation
				JOINT LeftShoulder
				{
					OFFSET 5.810000 0.000000 0.000000 
					CHANNELS 6 Xposition Yposition Zposition Zrotation Xrotation Yrotation
					JOINT LeftElbow
					{
						OFFSET 0.000000 -12.080000 0.000000 
						CHANNELS 6 Xposition Yposition Zposition Zrotation Xrotation Yrotation
						JOINT LeftWrist
						{
							OFFSET 0.000000 -9.820000 0.000000 
							CHANNELS 6 Xposition Yposition Zposition Zrotation Xrotation Yrotation
							End Site
							{
								OFFSET 0.000000 -7.370000 0.000000 
							}
						}
					}
				}
			}
			JOINT RightCollar
			{
				OFFSET -1.060000 4.190000 1.760000 
				CHANNELS 6 Xposition Yposition Zposition Zrotation Xrotation Yrotation
				JOINT RightShoulder
				{
					OFFSET -6.060000 0.000000 0.000000 
					CHANNELS 6 Xposition Yposition Zposition Zrotation Xrotation Yrotation
					JOINT RightElbow
					{
						OFFSET 0.000000 -11.080000 0.000000 
						CHANNELS 6 Xposition Yposition Zposition Zrotation Xrotation Yrotation
						JOINT RightWrist
						{
							OFFSET 0.000000 -9.820000 0.000000 
							CHANNELS 6 Xposition Yposition Zposition Zrotation Xrotation Yrotation
							End Site
							{
								OFFSET 0.000000 -7.140010 0.000000 
							}
						}
					}
				}
			}
			JOINT Neck
			{
				OFFSET 0.000000 4.050000 0.000000 
				CHANNELS 6 Xposition Yposition Zposition Zrotation Xrotation Yrotation
				JOINT Head
				{
					OFFSET 0.000000 5.190000 0.000000 
					CHANNELS 6 Xposition Yposition Zposition Zrotation Xrotation Yrotation
					End Site
					{
						OFFSET 0.000000 4.140010 0.000000 
					}
				}
			}
		}
	}
}
MOTION
Frames: 8
Frame Time: 0.033333
-50.045300 49.281300 28.883200 -17.496401 6.193870 173.733002 3.430000 -0.000000 0.000000 7.797640 -13.321800 9.350560 0.000000 -18.469999 -0.000000 -6.253790 41.916401 -3.224970 0.000000 -17.950001 -0.000000 -19.991501 26.590700 6.707590 -3.430000 0.000000 0.000000 -12.104100 -4.139920 -3.940730 0.000000 -18.469999 -0.000000 1.429010 13.509600 8.409920 0.000000 -17.950001 -0.000000 20.785400 21.713200 -6.224980 -0.000000 4.570000 0.000000 -4.150590 2.136720 -1.026670 -0.000000 6.570000 0.000000 -3.961600 4.328430 -2.150550 1.060000 4.190000 1.760000 32.867001 4.443350 -0.798167 5.810000 -0.000000 0.000000 151.776001 -37.073200 146.770004 -0.000000 -12.080000 -0.000000 11.260900 -64.625000 -24.554100 -0.000000 -9.820000 0.000000 46.588902 16.170799 -5.100060 -1.060000 4.190000 1.760000 -24.782499 9.428270 -13.975600 -6.060000 0.000000 0.000000 -152.477997 -18.726299 -146.923996 -0.000000 -11.080000 -0.000000 19.748899 -46.891800 57.759399 -0.000000 -9.820000 -0.000000 -60.592899 11.137300 7.704320 -0.000000 4.050000 0.000000 -3.778480 -7.785090 -4.500570 -0.000000 5.190000 0.000000 -4.164410 2.308750 -0.579206 
-51.495197 47.054096 27.623198 -16.819199 5.848479 172.240005 3.430000 -0.000000 0.000000 6.147180 -9.888580 7.170860 0.000000 -18.469999 -0.000000 -6.455190 29.525000 -7.687120 0.000000 -17.950001 -0.000000 -18.972700 26.114401 6.289000 -3.430000 0.000000 0.000000 -12.294700 -5.406410 -3.957300 0.000000 -18.469999 -0.000000 0.194290 11.852400 6.262020 0.000000 -17.950001 -0.000000 22.123899 22.597401 -6.738580 -0.000000 4.570000 0.000000 -3.443890 1.859670 -1.118230 -0.000000 6.570000 0.000000 -3.397420 3.768740 -2.210630 1.060000 4.190000 1.760000 34.948002 3.642080 -0.710810 5.810000 -0.000000 0.000000 151.237000 -38.373699 147.345993 -0.000000 -12.080000 -0.000000 10.413400 -66.178001 -26.941200 -0.000000 -9.820000 0.000000 46.478699 16.780701 -5.249870 -1.060000 4.190000 1.760000 -21.181000 8.304080 -14.613100 -6.060000 0.000000 0.000000 -154.455002 -18.871901 -145.854996 -0.000000 -11.080000 -0.000000 19.164101 -46.259899 56.644001 -0.000000 -9.820000 -0.000000 -61.389400 11.183000 7.855140 -0.000000 4.050000 0.000000 -2.762110 -7.802150 -5.577850 -0.000000 5.190000 0.000000 -5.252790 2.268710 -0.667047 
-52.918301 44.349003 26.483099 -16.236603 5.631530 170.682007 3.430000 -0.000000 0.000000 5.014130 -6.886560 5.405650 0.000000 -18.469999 -0.000000 -6.916000 17.709299 -14.378900 0.000000 -17.950001 -0.000000 -18.582199 26.531099 6.239840 -3.430000 0.000000 0.000000 -12.631400 -8.765790 -4.050360 0.000000 -18.469999 -0.000000 -0.102593 14.991600 4.195830 0.000000 -17.950001 -0.000000 18.544901 21.009501 -5.837130 -0.000000 4.570000 0.000000 -2.739680 1.723800 -1.174530 -0.000000 6.570000 0.000000 -2.838900 3.501930 -2.261000 1.060000 4.190000 1.760000 35.212601 3.619570 0.224068 5.810000 -0.000000 0.000000 153.186996 -40.037601 148.985001 -0.000000 -12.080000 -0.000000 10.649800 -67.034698 -27.459499 -0.000000 -9.820000 0.000000 45.148499 17.499300 -5.219850 -1.060000 4.190000 1.760000 -19.304501 7.574290 -13.639500 -6.060000 0.000000 0.000000 -154.175995 -19.127899 -143.347000 -0.000000 -11.080000 -0.000000 19.567400 -46.450600 56.110802 -0.000000 -9.820000 -0.000000 -61.327202 11.634900 8.099860 -0.000000 4.050000 0.000000 -2.532620 -8.034980 -6.390290 -0.000000 5.190000 0.000000 -4.796590 2.049870 -1.709700 
-54.333302 41.280300 25.490801 -15.857613 6.231522 169.112000 3.430000 -0.000000 0.000000 4.199030 -6.676100 3.842960 0.000000 -18.469999 -0.000000 -8.015860 13.969100 -19.691999 0.000000 -17.950001 -0.000000 -17.556000 23.964701 5.473280 -3.430000 0.000000 0.000000 -13.629100 -14.600700 -4.238040 0.000000 -18.469999 -0.000000 2.439750 28.698799 5.277700 0.000000 -17.950001 -0.000000 -2.328140 2.746640 0.107966 -0.000000 4.570000 0.000000 -2.310020 1.937580 -1.205920 -0.000000 6.570000 0.000000 -2.345750 3.933790 -2.318620 1.060000 4.190000 1.760000 34.047600 4.376100 0.587401 5.810000 -0.000000 0.000000 155.822998 -41.807201 150.535995 -0.000000 -12.080000 -0.000000 11.082300 -67.607201 -26.956400 -0.000000 -9.820000 0.000000 43.467098 16.444401 -4.653880 -1.060000 4.190000 1.760000 -18.598400 7.975650 -12.620500 -6.060000 0.000000 0.000000 -153.126007 -20.245100 -141.912994 -0.000000 -11.080000 -0.000000 20.813400 -48.029598 56.324501 -0.000000 -9.820000 -0.000000 -59.853199 11.383400 7.730280 -0.000000 4.050000 0.000000 -2.758780 -8.121920 -6.667790 -0.000000 5.190000 0.000000 -4.626350 2.115980 -2.365090 
-55.808704 38.263996 24.895597 -15.058700 8.307540 166.496994 3.430000 -0.000000 0.000000 4.013900 -12.131300 3.090510 0.000000 -18.469999 -0.000000 -8.724260 28.464001 -16.802799 0.000000 -17.950001 -0.000000 -11.533000 2.865880 1.216550 -3.430000 0.000000 0.000000 -16.340200 -18.147900 -3.761440 0.000000 -18.469999 -0.000000 4.161560 42.362801 7.785490 0.000000 -17.950001 -0.000000 -9.192820 -19.854601 -0.281844 -0.000000 4.570000 0.000000 -2.474690 2.906510 -1.001400 -0.000000 6.570000 0.000000 -1.688230 5.839270 -1.971980 1.060000 4.190000 1.760000 34.961700 6.958220 0.132632 5.810000 -0.000000 0.000000 155.462997 -44.210701 151.692993 -0.000000 -12.080000 -0.000000 11.210500 -70.013496 -27.227400 -0.000000 -9.820000 0.000000 41.582298 15.902800 -4.217530 -1.060000 4.190000 1.760000 -20.319300 10.392400 -10.296300 -6.060000 0.000000 0.000000 -148.326996 -22.735701 -142.334000 -0.000000 -11.080000 -0.000000 25.971701 -52.624802 60.509800 -0.000000 -9.820000 -0.000000 -57.204601 10.348200 6.768770 -0.000000 4.050000 0.000000 -2.842290 -6.868610 -6.515920 -0.000000 5.190000 0.000000 -4.451610 -0.402753 -3.197370 
-57.365200 35.882999 24.713102 -11.953807 11.467105 161.938995 3.430000 -0.000000 0.000000 5.088010 -11.228100 4.620870 0.000000 -18.469999 -0.000000 -7.891910 35.514500 -11.277500 0.000000 -17.950001 -0.000000 -7.781610 -19.299900 -1.097550 -3.430000 0.000000 0.000000 -14.795000 -25.959499 0.998041 0.000000 -18.469999 -0.000000 2.915580 60.722599 6.423190 0.000000 -17.950001 -0.000000 -5.783420 -27.330900 -0.146311 -0.000000 4.570000 0.000000 -2.142400 4.686840 -0.520676 -0.000000 6.570000 0.000000 -0.418996 9.371630 -1.183590 1.060000 4.190000 1.760000 37.451698 11.199300 -2.767510 5.810000 -0.000000 0.000000 152.893997 -47.258701 153.419998 -0.000000 -12.080000 -0.000000 7.710030 -75.513199 -31.415800 -0.000000 -9.820000 0.000000 38.606400 15.224000 -3.604930 -1.060000 4.190000 1.760000 -21.136999 14.147600 -4.653300 -6.060000 0.000000 0.000000 -142.707993 -25.300699 -143.382004 -0.000000 -11.080000 -0.000000 35.513199 -57.734699 71.606903 -0.000000 -9.820000 -0.000000 -56.065399 10.974400 6.923660 -0.000000 4.050000 0.000000 -1.872790 -4.566270 -5.635020 -0.000000 5.190000 0.000000 -4.084600 -5.447150 -3.698300 
-58.687595 34.498005 24.668798 -12.495398 12.238601 161.154999 3.430000 -0.000000 0.000000 3.589660 -18.955601 4.322460 0.000000 -18.469999 -0.000000 -10.088500 50.763000 -6.751790 0.000000 -17.950001 -0.000000 -6.185120 -24.548901 -1.374330 -3.430000 0.000000 0.000000 -14.686700 -30.334801 4.347550 0.000000 -18.469999 -0.000000 -1.629500 68.905701 7.651010 0.000000 -17.950001 -0.000000 -1.446320 -31.373301 0.730876 -0.000000 4.570000 0.000000 -2.820300 5.727340 -0.911990 -0.000000 6.570000 0.000000 -1.017550 11.426800 -2.020100 1.060000 4.190000 1.760000 37.278599 11.593100 -8.498870 5.810000 -0.000000 0.000000 151.580002 -52.957600 155.272995 -0.000000 -12.080000 -0.000000 -3.941490 -82.122803 -42.298199 -0.000000 -9.820000 0.000000 33.247601 15.523400 -2.834760 -1.060000 4.190000 1.760000 -16.686399 15.810300 1.094420 -6.060000 0.000000 0.000000 -141.593994 -28.840401 -140.682999 -0.000000 -11.080000 -0.000000 45.639999 -63.879601 76.697403 -0.000000 -9.820000 -0.000000 -52.802700 12.340100 7.092840 -0.000000 4.050000 0.000000 -0.826524 -4.798770 -6.713280 -0.000000 5.190000 0.000000 -4.927110 -6.242910 -1.849620 
-59.843899 33.871700 24.441099 -11.979100 14.940201 160.610992 3.430000 -0.000000 0.000000 1.502790 -19.360201 4.162240 0.000000 -18.469999 -0.000000 -11.323700 56.489101 -3.778630 0.000000 -17.950001 -0.000000 -4.587260 -27.129299 -1.327360 -3.430000 0.000000 0.000000 -15.338400 -29.780300 5.040990 0.000000 -18.469999 -0.000000 -5.479590 72.141800 8.138490 0.000000 -17.950001 -0.000000 2.284540 -32.860802 1.634490 -0.000000 4.570000 0.000000 -2.957440 7.289380 -1.358050 -0.000000 6.570000 0.000000 -1.039060 14.543700 -3.026810 1.060000 4.190000 1.760000 32.618698 14.569200 -13.631800 5.810000 -0.000000 0.000000 154.276993 -59.097401 153.684998 -0.000000 -12.080000 -0.000000 -12.780300 -86.324898 -49.332600 -0.000000 -9.820000 0.000000 26.928900 16.339399 -1.984610 -1.060000 4.190000 1.760000 -9.506600 19.646799 4.376430 -6.060000 0.000000 0.000000 -146.067001 -33.566799 -137.274002 -0.000000 -11.080000 -0.000000 48.165798 -68.209297 73.440201 -0.000000 -9.820000 -0.000000 -43.622002 12.694100 5.852670 -0.000000 4.050000 0.000000 -0.637789 -5.212560 -7.861260 -0.000000 5.190000 0.000000 -5.393720 -4.863480 -1.175030 
